<svg width="43" height="39" viewBox="0 0 43 39" fill="none" xmlns="http://www.w3.org/2000/svg">
<g clip-path="url(#clip0_155_80)">
<path d="M24.7444 20.1478C25.2197 21.578 26.0647 22.7327 26.9754 23.8855C27.749 24.8648 28.6695 25.2194 30.0741 25.1499C32.0777 25.0507 32.388 25.3723 32.5422 27.069C32.6566 28.3289 32.7624 29.5892 32.881 30.9496C33.3245 30.9496 33.7102 30.9496 34.0978 30.9496C35.3671 30.9496 36.3438 31.6894 36.3962 32.7035C36.4416 33.5833 36.58 34.4601 36.6774 35.3373C36.7562 36.0475 36.8883 36.7571 36.9016 37.4681C36.9209 38.5416 36.4481 38.8957 35.1554 38.867C31.5611 38.7864 27.9677 38.6501 24.3732 38.6335C19.7888 38.6125 15.2037 38.6876 10.6189 38.7211C9.95903 38.726 9.29837 38.75 8.63949 38.7295C7.5375 38.6952 6.91429 38.163 6.97464 37.2469C7.07105 35.7902 7.22049 34.3357 7.36029 32.8811C7.42161 32.2423 7.76063 31.7841 8.58592 31.6736C9.39116 31.5656 10.1949 31.4491 11.141 31.3166C11.1977 30.7882 11.276 30.1953 11.3217 29.6008C11.3883 28.7207 11.4227 27.839 11.4852 26.9586C11.5705 25.7615 12.081 25.271 13.4987 25.1053C14.313 25.0097 15.1406 24.987 15.9632 24.948C16.3016 24.9319 16.6115 24.9301 16.7966 24.6257C17.6016 23.3008 18.5222 22.0195 18.9823 20.5658C19.0287 20.3711 19.0609 20.1744 19.0787 19.9765C18.8328 19.9023 18.6247 19.8324 18.4113 19.7765C16.225 19.2027 14.2918 18.0995 12.8566 16.6065C12.4848 16.2296 12.0649 16.1031 11.5167 16.0238C8.45172 15.5809 5.61198 14.6712 3.17082 13.0193C1.58252 11.9445 0.509816 10.5952 0.166587 8.87756C-0.404368 6.00994 2.33855 3.18988 5.80747 3.11011C6.95748 3.08368 8.10922 3.1059 9.29066 3.1059C9.45379 2.5591 9.5745 2.10671 9.72413 1.66256C9.9642 0.949448 10.3705 0.403778 11.4131 0.421667C11.8335 0.429241 12.2559 0.280669 12.6784 0.27664C18.9789 0.215939 25.2795 0.164234 31.58 0.121582C31.974 0.126435 32.3662 0.16691 32.7495 0.242293C33.6205 0.396842 34.0993 0.888215 34.2989 1.58844C34.376 1.85613 34.4321 2.1277 34.5168 2.4758C34.7698 2.4758 35.0218 2.47837 35.2738 2.4758C36.3951 2.46177 37.5164 2.43567 38.6376 2.43357C41.0929 2.4289 43.1181 3.99501 42.8908 6.42799C42.4627 11.0108 38.2491 14.5647 33.5528 15.2579C33.522 15.2673 33.4894 15.2727 33.4564 15.274C32.2042 15.1114 31.6784 15.7721 31.0729 16.5517C29.6159 18.425 27.538 19.6413 24.7444 20.1478ZM11.649 1.80409C11.6036 2.03132 11.5693 2.16378 11.5514 2.29802C11.1341 5.56809 11.5279 8.87492 12.7083 12.0121C13.9725 15.4574 16.7356 17.6334 21.1494 18.1083C23.9523 18.4102 26.4949 17.9715 28.3851 16.0581C28.9896 15.4413 29.4979 14.7628 29.8976 14.039C31.903 10.4182 32.4505 6.60783 31.8666 2.66802C31.828 2.4055 31.7357 2.14849 31.6466 1.80409H11.649ZM9.08954 33.2653C9.23532 34.5589 9.36991 35.7536 9.50933 36.9929C9.95282 36.9929 10.2756 37.0032 10.5978 36.9913C13.2308 36.8946 15.8631 36.7297 18.4969 36.7076C23.4081 36.6665 28.3201 36.7076 33.232 36.7128C33.5147 36.7128 33.7973 36.6894 34.1126 36.6754C34.2613 35.4332 34.4007 34.268 34.5486 33.0332L9.08954 33.2653ZM29.4954 31.0048C29.635 29.6846 29.9368 28.4601 29.9389 27.1597C24.4714 27.0638 19.1278 26.6748 13.6508 26.8914C13.8437 28.3961 14.0272 29.8244 14.2114 31.2602L29.4954 31.0048ZM9.19467 4.68139C7.96908 4.8253 6.86955 4.96872 5.76543 5.07975C4.65071 5.19256 3.9124 5.70827 3.38638 6.50374C2.5258 7.80669 2.69876 9.07679 3.71418 10.2197C5.42492 12.1463 7.93182 12.994 10.7347 13.6696C9.50894 10.709 9.25561 7.76497 9.19467 4.68139ZM33.2002 12.7589C36.128 12.0201 38.0534 10.6007 39.2088 8.50434C39.6253 7.69986 39.8981 6.84863 40.0187 5.97788C40.1536 5.14518 39.6804 4.64026 38.8054 4.52632C37.4421 4.35002 36.07 4.47799 34.6242 4.46188C34.8083 7.27895 34.3243 10.0986 33.2002 12.7589ZM22.5369 20.3247L21.1708 20.2654C20.5275 21.8256 19.9128 23.316 19.2675 24.8808H24.6405L22.5369 20.3247Z" fill="white"/>
</g>
<defs>
<clipPath id="clip0_155_80">
<rect width="43" height="39" fill="white"/>
</clipPath>
</defs>
</svg>
