<svg width="26" height="35" viewBox="0 0 26 35" fill="none" xmlns="http://www.w3.org/2000/svg">
<path d="M2.31692 10.25C-3.40608 19.333 3.27492 28.25 3.27492 28.25C3.27492 28.25 6.14891 27.808 10.1499 23.05C14.1499 18.292 2.31692 10.25 2.31692 10.25ZM23.6589 10.25C29.3819 19.333 22.7009 28.25 22.7009 28.25C22.7009 28.25 19.8269 27.808 15.8259 23.05C11.8249 18.292 23.6589 10.25 23.6589 10.25Z" fill="#662113"/>
<path d="M10.2029 30.807C10.0799 30.578 9.8859 30.4231 9.6719 30.3111C7.6399 28.1391 9.0829 25.594 9.0829 25.594C9.0829 24.891 10.3539 23.05 9.0829 23.05L7.8109 24.3221C6.5389 25.5931 6.5389 29.411 6.5389 29.411H3.9949C3.2919 29.411 2.7229 29.9791 2.7229 30.6831C2.7229 31.3841 3.2919 31.954 3.9949 31.954H5.4029L5.1209 32.107C4.5029 32.441 4.2729 33.212 4.6069 33.833C4.9409 34.449 5.7129 34.681 6.3309 34.347L9.6879 32.531C10.3069 32.197 10.5339 31.426 10.2029 30.807ZM15.7989 30.807C15.9219 30.578 16.1159 30.4231 16.3289 30.3111C18.3619 28.1391 16.9179 25.594 16.9179 25.594C16.9179 24.891 15.6469 23.05 16.9179 23.05L18.1899 24.3221C19.4629 25.5931 19.4629 29.411 19.4629 29.411H22.0069C22.7109 29.411 23.2779 29.9791 23.2779 30.6831C23.2779 31.3841 22.7119 31.954 22.0069 31.954H20.5989L20.8799 32.107C21.4999 32.441 21.7279 33.212 21.3949 33.833C21.0589 34.449 20.2899 34.681 19.6689 34.347L16.3129 32.531C15.6939 32.197 15.4659 31.426 15.7989 30.807Z" fill="#FFAC33"/>
<path d="M23.2779 10.542C26.1689 4.45 23.2779 0 23.2779 0C23.2779 0 17.4969 0.959 16.5339 2.875C15.3149 5.299 23.2779 10.542 23.2779 10.542Z" fill="#662113"/>
<path d="M24.5619 11.988C24.5619 22.285 21.4099 32.583 12.9999 32.583C4.59092 32.583 1.43692 22.285 1.43692 11.988C1.43692 1.69001 6.61392 1.33301 12.9999 1.33301C19.3869 1.33301 24.5619 1.69001 24.5619 11.988Z" fill="#662113"/>
<path d="M22.6659 16.9879C22.6659 27.2849 14.8919 31.5829 12.9999 31.5829C11.1079 31.5829 3.33392 27.2849 3.33392 16.9879C3.33392 6.6899 22.6659 6.6899 22.6659 16.9879Z" fill="#C1694F"/>
<path d="M2.7219 10.542C-0.169099 4.45 2.7219 0 2.7219 0C2.7219 0 8.5039 0.959 9.4679 2.875C10.6859 5.299 2.7219 10.542 2.7219 10.542Z" fill="#662113"/>
<path d="M9.92891 3.623C5.70191 2.039 2.72191 0 2.72191 0C2.72191 0 0.645907 3.221 1.79391 7.926C2.23991 10.063 3.73391 12.121 5.69791 12.588C8.33491 13.215 12.9999 12.539 12.9999 8.625C12.9999 5.93 11.9259 4.373 9.92891 3.623ZM16.0709 3.623C20.2979 2.039 23.2769 0 23.2769 0C23.2769 0 25.3529 3.221 24.2049 7.926C23.7599 10.063 22.2659 12.121 20.3029 12.588C17.6649 13.215 12.9999 12.539 12.9999 8.625C12.9999 5.93 14.0739 4.373 16.0709 3.623Z" fill="#C1694F"/>
<path d="M11.0829 7.66698C11.0829 9.78398 9.3669 11.5 7.2499 11.5C5.1329 11.5 3.4169 9.78398 3.4169 7.66698C3.4169 5.54998 5.1339 3.83398 7.2499 3.83398C9.3669 3.83298 11.0829 5.54998 11.0829 7.66698ZM22.5829 7.66698C22.5829 9.78398 20.8669 11.5 18.7499 11.5C16.6329 11.5 14.9169 9.78398 14.9169 7.66698C14.9169 5.54998 16.6329 3.83398 18.7499 3.83398C20.8669 3.83398 22.5829 5.54998 22.5829 7.66698Z" fill="#FFD983"/>
<path d="M9.16692 7.667C9.16692 8.726 8.30892 9.584 7.24992 9.584C6.19092 9.584 5.33292 8.726 5.33292 7.667C5.33292 6.609 6.19092 5.75 7.24992 5.75C8.30892 5.75 9.16692 6.608 9.16692 7.667ZM20.6669 7.667C20.6669 8.726 19.8089 9.584 18.7499 9.584C17.6909 9.584 16.8329 8.726 16.8329 7.667C16.8329 6.609 17.6909 5.75 18.7499 5.75C19.8089 5.75 20.6669 6.608 20.6669 7.667Z" fill="#292F33"/>
<path d="M15.8749 11.979C15.8749 14.361 12.9999 15.333 12.9999 15.333C12.9999 15.333 10.1249 14.36 10.1249 11.979C10.1249 9.598 12.9999 8.625 12.9999 8.625C12.9999 8.625 15.8749 9.597 15.8749 11.979Z" fill="#FFCC4D"/>
<path d="M15.8749 11.979C15.8749 14.361 12.9999 15.333 12.9999 15.333C12.9999 15.333 10.1249 14.36 10.1249 11.979C11.3229 13.177 12.9999 13.417 12.9999 13.417C12.9999 13.417 14.6769 13.177 15.8749 11.979Z" fill="#F4900C"/>
</svg>
