<svg width="53" height="48" viewBox="0 0 53 48" fill="none" xmlns="http://www.w3.org/2000/svg">
<g clip-path="url(#clip0_155_73)">
<path d="M3.03161 39.02C3.60804 39.0933 4.17011 38.9105 4.70134 38.4751C5.4871 37.8307 6.33078 37.2161 7.14591 36.6219C7.46843 36.3869 7.79116 36.1522 8.11142 35.9146C8.53542 35.6006 8.96351 35.2908 9.40743 34.9696L9.85033 34.6486C10.1741 35.0351 10.502 35.4149 10.8202 35.7837C11.8101 36.9307 12.7469 38.0163 13.5217 39.2358L13.4515 39.2939C13.3356 39.3896 13.2364 39.4717 13.1324 39.5486C12.5518 39.9772 11.9697 40.4049 11.3863 40.8318C10.1813 41.7164 8.93497 42.6307 7.72254 43.5459C7.08798 44.0247 6.79338 44.4517 6.79564 44.8891C6.79811 45.3318 7.10606 45.7651 7.76486 46.2528C8.74132 46.9981 9.9119 47.5008 11.1634 47.7125C11.9826 47.8454 12.8129 47.9131 13.645 47.9146C14.4188 47.9144 15.1912 47.8539 15.9538 47.7335C21.7331 46.8277 25.8936 41.9193 25.4253 36.5585C25.3388 35.456 25.0483 34.3751 24.5658 33.3612L37.3963 23.6699C37.7091 23.7412 38.0072 23.8143 38.2963 23.8848C38.9269 24.0502 39.5664 24.1857 40.2123 24.2906C41.6141 24.4859 43.0445 24.4226 44.419 24.1042C45.7933 23.7856 47.0838 23.2186 48.2136 22.4367C49.4696 21.5868 50.5257 20.5152 51.3197 19.2858C52.1136 18.0565 52.6293 16.6943 52.8357 15.2797C53.2384 12.6817 52.3248 10.3716 51.484 8.64983C51.4499 8.58008 51.4135 8.51093 51.3774 8.44175C51.2774 8.2682 51.1979 8.08531 51.1405 7.89627C50.9996 7.3409 50.7597 6.99817 50.4065 6.84835C50.0814 6.71054 49.6779 6.75237 49.2071 6.97231C48.5764 7.28975 47.9955 7.68286 47.4792 8.14117C46.3093 9.12967 45.1409 10.149 44.0106 11.135C43.6108 11.4837 43.2115 11.8315 42.813 12.1785L37.5986 8.17623L37.611 8.1551C37.6465 8.0867 37.6882 8.02103 37.7354 7.9589C39.0044 6.4379 40.5461 4.67558 42.3738 3.12683C42.6215 2.93247 42.8432 2.71222 43.0346 2.47058C43.3497 2.03783 43.3017 1.56818 42.9181 1.32837C42.8315 1.27412 42.7446 1.2192 42.657 1.16357C42.0677 0.788573 41.4584 0.401779 40.7762 0.236966C39.8312 0.0295142 38.8562 -0.0395347 37.8877 0.0325298C35.5626 0.139838 33.2966 0.739388 31.2688 1.78366C27.5196 3.75091 25.6089 6.61792 25.5896 10.3051C25.5787 11.523 25.9148 12.7226 26.5654 13.786C22.3734 16.7767 18.6237 19.5217 15.2791 22.6767C13.5889 21.9018 11.8296 21.9731 10.323 22.1484C6.37269 22.6092 3.48234 24.3046 1.73191 27.1887C0.420092 29.3375 -0.159303 31.7947 0.0679356 34.2459C0.187905 35.6651 0.571432 36.8287 1.24071 37.8033C1.71463 38.4918 2.36665 38.9347 3.03161 39.02ZM17.3394 23.6902C18.6519 22.6829 19.9671 21.6787 21.2849 20.6778C22.774 19.5436 24.2613 18.4074 25.7468 17.2689C26.2566 16.8766 26.7579 16.4627 27.2425 16.0608C27.6778 15.7005 28.1276 15.3279 28.5804 14.975C29.0011 14.6469 28.9913 14.2826 28.9171 13.9372C28.4857 11.9139 28.4434 10.1272 28.7895 8.47497C28.959 7.61071 29.3156 6.78599 29.8386 6.049C30.3615 5.31202 31.04 4.67755 31.8348 4.1827C34.1179 2.71612 36.8823 2.00675 39.6685 2.17248C39.8485 2.18607 40.0272 2.21283 40.2026 2.25241C40.0794 2.3696 39.9717 2.47343 39.8647 2.57806C39.4148 3.01831 38.9639 3.4577 38.5122 3.89633C37.372 5.00596 36.1931 6.15365 35.0517 7.29833C34.2804 8.07196 34.2849 8.6225 35.0688 9.4025C36.5043 10.8307 37.9265 12.1824 39.6367 13.8009C39.9493 14.0798 40.2942 14.327 40.665 14.5381C41.9943 15.3444 42.5845 15.4278 43.9313 14.4286C45.1433 13.5298 46.3377 12.5767 47.493 11.655C47.986 11.2615 48.4801 10.8688 48.9753 10.477C49.1703 10.3239 49.3638 10.1694 49.5818 9.9952L49.6383 9.95035C50.0512 11.6485 50.4059 13.2615 49.948 14.8817C48.7935 18.9691 45.6719 21.1389 40.9206 21.1582C40.3483 21.1617 39.7663 21.1462 39.2026 21.1317C38.5588 21.1156 37.8924 21.0995 37.2363 21.1074C36.8157 21.1087 36.4063 21.2302 36.0653 21.455L35.4437 21.9117C33.465 23.3645 31.4194 24.8666 29.4691 26.4117C28.0075 27.5701 26.5662 28.793 25.1724 29.9754C24.5561 30.4985 23.9382 31.0207 23.3184 31.5416C23.3003 31.5573 23.2833 31.5738 23.2671 31.5914C23.2619 31.5976 23.2562 31.6034 23.2498 31.6089C23.1557 31.6839 23.0507 31.7561 22.9392 31.8314C22.6563 31.9925 22.4191 32.2121 22.2463 32.4723C22.1068 32.7911 22.0454 33.1338 22.0665 33.4766C22.0645 33.5771 22.0626 33.677 22.0565 33.7743C22.0359 34.0912 22.0238 34.4088 22.0115 34.7261C21.9942 35.168 21.9764 35.6246 21.9357 36.0697C21.9059 36.3957 21.8835 36.7239 21.8613 37.0524C21.8278 37.961 21.7103 38.8657 21.5102 39.7563C20.7613 42.6402 18.6644 44.4063 15.2773 45.0054C13.9243 45.2677 12.527 45.2756 11.1706 45.0282C10.8925 44.9744 10.6102 44.8957 10.2834 44.8046C10.2281 44.7888 10.1712 44.7731 10.1127 44.7569C10.4652 44.5102 10.811 44.2692 11.1501 44.0337C12.2013 43.3025 13.1936 42.6125 14.1643 41.8927C14.6685 41.5029 15.1469 41.0862 15.5969 40.6449C15.7489 40.5012 15.9012 40.3578 16.055 40.2166C16.6567 39.6641 16.7375 38.9724 16.2884 38.2164C15.9901 37.6921 15.6291 37.1997 15.212 36.7481C14.047 35.5265 12.8085 34.2759 11.5301 33.0307C10.5921 32.1168 10.0015 32.0851 8.89656 32.8876C7.83025 33.6626 6.76629 34.4405 5.70464 35.2209C5.09658 35.6666 4.48825 36.1121 3.87963 36.5574C3.75843 36.6459 3.63312 36.7304 3.48501 36.8313C3.47905 36.8352 3.47289 36.8394 3.46693 36.8437C2.96074 35.2882 2.90645 33.6395 3.30937 32.0591C3.489 31.3514 3.72597 30.6571 4.0183 29.9816C5.15923 27.3616 7.30756 25.9177 10.5864 25.5669L11.9816 25.4169C13.2222 25.283 14.4628 25.1491 15.7042 25.0231C15.9341 25.0203 16.1576 24.9534 16.3445 24.8311C16.5315 24.7089 16.673 24.5375 16.75 24.3397C16.8861 24.083 17.0883 23.8601 17.3394 23.6902Z" fill="white"/>
</g>
<defs>
<clipPath id="clip0_155_73">
<rect width="53" height="48" fill="white"/>
</clipPath>
</defs>
</svg>
