<svg width="36" height="30" viewBox="0 0 36 30" fill="none" xmlns="http://www.w3.org/2000/svg">
<path d="M8.46104 23.5468C8.161 23.495 7.92097 23.4433 7.62094 23.3398C7.3209 23.2363 7.08087 23.1846 6.84084 23.0811C6.30077 22.8741 5.82072 22.6154 5.34066 22.305C4.38054 21.7358 3.60044 20.9597 3.00037 20.0284C2.4003 19.1488 2.04025 18.1139 1.98024 17.1308C1.92024 16.6134 1.98024 16.1477 2.04025 15.6303C2.10026 15.3716 2.16027 15.1647 2.22027 14.906C2.28028 14.6472 2.40029 14.4403 2.4603 14.1816L2.52031 14.906C2.52031 15.1647 2.58032 15.3716 2.64032 15.6303C2.70033 16.096 2.82035 16.5617 2.94036 16.9756C3.18039 17.8552 3.54044 18.6831 4.0805 19.4592C4.62057 20.2353 5.22064 20.9597 6.00074 21.6323C6.36078 21.9428 6.78083 22.2532 7.20089 22.5637C7.38091 22.7189 7.62094 22.8741 7.86097 23.0294L8.46104 23.5468ZM8.28102 25.4095C8.101 25.513 7.86097 25.5647 7.62094 25.6164C7.38091 25.6682 7.20089 25.7199 6.96086 25.7199C6.5408 25.7717 6.06075 25.8234 5.58069 25.7717C4.68058 25.7199 3.72046 25.513 2.94036 25.1508C2.10026 24.7886 1.38017 24.2194 0.900111 23.5468C0.660081 23.2363 0.420052 22.8741 0.24003 22.512C0.180022 22.3567 0.120015 22.1498 0.0600073 21.9428C0.0600073 21.7876 0 21.6323 0 21.4254C0.180022 21.5806 0.300037 21.7358 0.420052 21.8393C0.600074 21.9945 0.720089 22.1498 0.840103 22.2532C1.14014 22.512 1.38017 22.7707 1.68021 22.9776C2.28028 23.4433 2.88035 23.8572 3.60044 24.1677C4.26052 24.4781 5.04062 24.7368 5.76071 24.9438C6.12075 25.0473 6.5408 25.099 6.96086 25.2025C7.14088 25.2542 7.38091 25.2542 7.56093 25.306C7.86097 25.3577 8.04099 25.3577 8.28102 25.4095ZM21.8427 0.263118C22.1427 0.31486 22.3828 0.418343 22.6828 0.521826C22.9828 0.625309 23.2229 0.728791 23.4629 0.832274C24.0029 1.09098 24.483 1.34969 24.9631 1.66014C25.9232 2.28104 26.7033 3.1089 27.2433 4.04025C27.7834 4.97159 28.0835 6.00642 28.0835 6.98951C28.0835 7.50692 28.0234 7.9726 27.9034 8.49001C27.8434 8.74872 27.7834 8.95568 27.6634 9.21439C27.5434 9.4731 27.4834 9.68007 27.3634 9.88703L27.3034 9.16265C27.3034 8.90394 27.3034 8.69698 27.2433 8.43827L27.0633 7.04125C26.8833 6.16165 26.5233 5.28204 26.0432 4.45418C25.5631 3.62631 24.9631 2.90193 24.243 2.22929C23.8829 1.8671 23.4629 1.55666 23.1028 1.19446C22.9228 1.03924 22.6828 0.884016 22.4428 0.728792L21.8427 0.263118ZM27.0633 0.0561523C27.3034 0.107894 27.4834 0.159635 27.6634 0.263118C27.8434 0.31486 28.0835 0.418343 28.2635 0.521826C28.6235 0.728791 28.9836 0.935757 29.3436 1.19446C30.0037 1.71188 30.5438 2.33278 30.8438 3.05716C31.2038 3.78154 31.3239 4.55766 31.2038 5.33378C31.1438 5.69597 31.0238 6.05816 30.9038 6.42035C30.8438 6.57558 30.7238 6.78254 30.6638 6.93777C30.5438 7.09299 30.4837 7.24822 30.3037 7.40344V6.88603V6.36861C30.3037 6.00642 30.2437 5.69597 30.2437 5.38552C30.1237 4.71288 30.0037 4.09199 29.7037 3.52283C29.4036 2.90193 29.0436 2.38452 28.6235 1.81536C28.3835 1.55665 28.1435 1.24621 27.9034 0.987499C27.7834 0.832274 27.6634 0.728791 27.4834 0.573567C27.3634 0.31486 27.1833 0.159635 27.0633 0.0561523Z" fill="#42ADE2"/>
<path d="M4.80061 7.76554C3.60046 8.23122 3.18041 9.47301 3.72048 10.5078L11.2814 24.1158L15.4819 22.4084L7.92099 8.74863C7.38093 7.7138 6.00076 7.24813 4.80061 7.76554ZM24.6631 18.5795L29.1036 16.7686L20.4625 1.24612C19.8625 0.211289 18.4223 -0.254384 17.1621 0.26303C15.962 0.780445 15.4219 2.02224 16.022 3.10881L24.6631 18.5795Z" fill="#FFDD67"/>
<path d="M17.2221 0.211376C17.1021 0.263117 16.9821 0.314859 16.8621 0.418342C18.0022 0.159634 19.2023 0.625307 19.7424 1.55665L28.3835 17.0791L29.1636 16.7686L20.5225 1.24621C19.9224 0.159634 18.4823 -0.306039 17.2221 0.211376Z" fill="#EBA352"/>
<path d="M15.4819 22.3567L20.1025 20.4423L11.2814 4.60937C10.6813 3.5228 9.12116 3.00539 7.861 3.5228C6.60085 4.04022 6.06078 5.38549 6.66085 6.47206L15.4819 22.3567Z" fill="#FFDD67"/>
<path d="M7.86096 3.57454C7.74095 3.62628 7.62093 3.67803 7.50092 3.78151C8.64106 3.5228 9.96122 3.98848 10.5013 4.97156L15.962 14.8542L17.2821 15.5268L11.2814 4.66111C10.6813 3.5228 9.18112 3.05713 7.86096 3.57454Z" fill="#EBA352"/>
<path d="M19.3824 19.2004L24.003 17.2859L15.1819 1.45304C14.5818 0.366474 13.0216 -0.150941 11.7615 0.418215C10.5013 0.93563 9.96123 2.28091 10.5613 3.36748L19.3824 19.2004Z" fill="#FFDD67"/>
<path d="M11.7615 0.366535C11.6414 0.418277 11.5214 0.52176 11.4014 0.573501C12.5415 0.314794 13.8617 0.780467 14.4018 1.76356L20.5825 12.9397L21.9027 13.6124L15.1819 1.45311C14.5818 0.314794 13.0216 -0.150879 11.7615 0.366535ZM4.8006 7.76557C4.68058 7.81731 4.56057 7.86905 4.44055 7.97253C5.52068 7.71382 6.66082 8.1795 7.14088 9.11084L11.6414 17.2343L12.9616 17.9069L7.92098 8.80039C7.38091 7.71382 6.00074 7.24815 4.8006 7.76557Z" fill="#EBA352"/>
<path d="M35.2844 6.21338C33.6642 5.12681 31.0238 6.31686 29.7037 10.0422C28.8036 12.6293 28.6835 13.4054 26.7633 14.1816L25.6832 12.2671C25.6832 12.2671 8.64108 19.3557 9.30116 20.494C9.30116 20.494 11.3414 25.9786 14.8218 28.5139C19.9825 32.3428 32.044 28.2552 32.584 18.3726C32.8841 12.6293 37.0246 7.40343 35.2844 6.21338Z" fill="#FFDD67"/>
<path d="M35.2843 6.21351C34.9843 6.00654 34.6243 5.90306 34.2642 5.85132C34.3242 5.90306 34.4442 5.90306 34.5042 5.9548C36.3045 7.14485 34.4442 9.88715 33.4241 12.3707C32.584 14.3369 31.8639 16.3548 31.9839 18.321C32.464 26.9101 22.4428 30.9977 16.442 29.4454C22.3227 31.5668 33.2441 27.531 32.764 18.5797C32.644 16.6135 33.3041 14.6991 34.2042 12.6294C35.1643 10.1459 37.0245 7.40356 35.2843 6.21351Z" fill="#EBA352"/>
<path d="M27.3034 13.9746C23.5829 14.3368 18.1222 18.9418 21.9627 23.9607C19.1424 18.89 23.7629 15.4751 26.7033 14.2851C27.0033 14.0781 27.3034 13.9746 27.3034 13.9746Z" fill="#EBA352"/>
</svg>
